<?xml version="1.0" encoding="utf-8"?>
<!-- Generator: Adobe Illustrator 18.1.1, SVG Export Plug-In . SVG Version: 6.00 Build 0)  -->
<svg version="1.1" id="Calque_1" xmlns="http://www.w3.org/2000/svg" xmlns:xlink="http://www.w3.org/1999/xlink" x="0px" y="0px"
	 viewBox="161 8 521 186" enable-background="new 161 8 521 186" xml:space="preserve">
<g id="layer1" display="none">
	<path display="inline" fill="#FCFCFC" d="M161,101V8h260.5H682v93v93H421.5H161V101z M391,168v-18H280H169v18v18h111h111V168z
		 M674,168v-18H536.5H399v18v18h137.5H674V168z M288.5,135l5.5-11h-4h-4l0.2-19.2l0.3-19.3h121h121l0.3,19.3L529,124h-4h-4l5.6,11.2
		l5.6,11.3l5.4-10.5c2.9-5.8,5.3-10.8,5.3-11.2c0.1-0.5-1.5-0.8-3.4-0.8H536l0.2-19.2l0.3-19.3l68.3-0.3L673,85V52.5V20H421.5H170
		v32.5V85h54.5H279v19.5V124h-3.5c-1.9,0-3.5,0.2-3.5,0.5c0,0.7,10.4,21.5,10.7,21.5C282.9,146,285.5,141.1,288.5,135z"/>
	<path display="inline" fill="#FCFCFC" d="M170,168v-17h110h110v17v17H280H170V168z M262.8,174.8c0.7-0.7,1.2-3.4,1.2-6
		c0-4.6-0.1-4.8-2.8-4.8c-3.3,0-5.2,1.6-5.2,4.5c0,2.6,1.8,4.5,4.2,4.5c1,0,1.8,0.5,1.8,1.1c0,0.7-1,0.9-2.5,0.7
		c-1.4-0.3-2.5-0.1-2.5,0.3C257,176.4,261.4,176.2,262.8,174.8z M312.2,170c2.7-6.2,2.4-8.5-0.4-2.7l-1.7,3.2l-1.2-3.2
		c-0.8-1.8-1.7-3.3-2.1-3.3c-0.7,0,1.6,6.7,2.7,7.8c0.2,0.3,0,1.3-0.6,2.3c-0.5,1.1-0.6,1.9-0.2,1.9
		C309.2,176,310.7,173.3,312.2,170z M187,167.6c0-4.9,0.2-5.5,2.3-5.9c1.2-0.2-0.3-0.4-3.3-0.4s-4.5,0.2-3.2,0.4
		c2,0.4,2.2,1,2.2,5.9c0,3,0.5,5.4,1,5.4C186.6,173,187,170.6,187,167.6z M200,172.1c0-0.4-1-0.6-2.3-0.4c-1.4,0.3-2.9-0.2-3.6-1.1
		c-1.2-1.4-0.9-1.6,2.3-1.6c2.9,0,3.6-0.4,3.6-2c0-2.4-4.4-3.8-6.5-2c-1.8,1.5-2,5.1-0.3,6.8C194.6,173.2,200,173.4,200,172.1z
		 M208.4,172.1c0.4-0.5-0.2-0.7-1.2-0.4c-1,0.2-2.5-0.3-3.2-1.2c-1.7-2.1-0.3-4.7,3.1-5.6l2.4-0.7l-2.6-0.1c-1.4-0.1-3,0.4-3.7,1.1
		c-1.5,1.5-1.5,5.1,0,6.6C204.6,173.2,207.6,173.4,208.4,172.1z M213.2,169.3c0.2-2.7,0.8-3.9,2.1-4.1c1.4-0.3,1.7,0.4,1.7,3.7
		c0,2.3,0.5,4.1,1,4.1c1.6,0,1.2-6.6-0.5-8c-0.8-0.7-2.2-1-3-0.6c-1.1,0.4-1.5-0.1-1.5-1.9c0-1.4-0.4-2.5-1-2.5s-1,2.8-1,6.5
		C211,173.4,212.7,175.5,213.2,169.3z M225.5,165.5c1.6,0,2.1,0.9,2.6,4l0.7,4l-0.2-4.5c-0.1-4.4-0.2-4.5-3.3-4.6
		c-3.3-0.1-3.3-0.1-3.2,4.5l0.2,4.6l0.6-4C223.4,166.4,223.9,165.5,225.5,165.5z M238.8,171.8c1.7-1.7,1.5-5.3-0.3-6.8
		c-0.8-0.7-2.5-1-4-0.6c-2.4,0.6-3,2.1-2.5,5.6C232.4,172.9,236.6,174,238.8,171.8z M244,166.5c0-3.7-0.4-6.5-1-6.5s-1,2.8-1,6.5
		s0.4,6.5,1,6.5S244,170.2,244,166.5z M253,171.6c2.8-3.5-1.1-9.3-4.7-7c-3.6,2.2-2.3,8.4,1.7,8.4C251,173,252.3,172.3,253,171.6z
		 M267.7,166.3c-0.2-1.6-0.4-0.5-0.4,2.2c0,2.8,0.2,4,0.4,2.8C267.9,170,267.9,167.8,267.7,166.3z M278.3,172.2
		c0.3-0.4-0.9-0.7-2.5-0.7c-1.7,0-3.3-0.6-3.5-1.2c-0.3-0.9,0.7-1.3,3.1-1.3c3.9,0,4.8-1.8,2.1-4c-2-1.6-6.5-0.4-6.6,1.8
		c-0.2,2.9,0.3,4.7,1.4,5.4C273.9,173.2,277.8,173.2,278.3,172.2z M286.8,171.7c1.3-1.6,0.3-3.4-2.2-3.8c-1.1-0.2-2.1-1-2.4-1.8
		c-0.3-1,0.2-1.3,2.2-0.9c1.8,0.4,2.4,0.2,1.8-0.4c-1.5-1.5-4.6-0.5-5,1.5c-0.2,1.1,0.6,2,2.2,2.7c3.4,1.2,3.4,3.4,0.1,2.8
		c-1.4-0.3-2.5-0.1-2.5,0.3C281,173.5,285.6,173.1,286.8,171.7z M303.4,171.4c0.9-0.8,1.6-1.7,1.6-1.9c0-1.3-3.6-3.5-5.6-3.5
		c-1.9,0-2.5-0.5-2.2-1.7c0.3-1.3,1.3-1.8,3.6-1.7c1.7,0.1,2.9-0.2,2.6-0.7c-0.9-1.4-6-1-7.4,0.6c-1.9,2.3-0.5,4.3,3.5,5.1
		c2.6,0.5,3.5,1.1,3.3,2.3c-0.4,2-4.4,2.7-6.4,1.1c-1.4-1.2-2.1,0-0.7,1.3C296.9,173.6,301.9,173,303.4,171.4z M322.5,170.5
		c0-1.3-0.8-2.1-2.2-2.3c-1.3-0.2-2.3-1-2.3-1.9c0-1.2,0.6-1.4,2.8-0.8c2,0.5,2.4,0.4,1.6-0.5c-0.7-0.6-2.2-1-3.5-0.8
		c-3.2,0.4-3.3,4-0.1,4.8c3.1,0.7,2.8,2.6-0.4,2.3c-1.4-0.1-2.2,0.2-1.8,0.8c0.3,0.6,1.8,0.9,3.2,0.7
		C321.7,172.6,322.5,171.9,322.5,170.5z M328.8,172.3c-1.3-0.3-1.8-1.5-1.8-3.9c0-2.5,0.4-3.4,1.8-3.5c1.6-0.1,1.6-0.2,0-0.6
		c-1-0.2-1.8-1.1-1.8-1.9c0-2-2-1.7-2.1,0.4c-0.2,3,0.3,8.7,0.8,9.5c0.2,0.4,1.4,0.6,2.6,0.6C330,172.8,330.1,172.7,328.8,172.3z
		 M339,172.1c0-0.4-1-0.6-2.3-0.4c-1.4,0.3-2.9-0.2-3.6-1.1c-1.2-1.4-0.9-1.6,2.3-1.6c2.9,0,3.6-0.4,3.6-2c0-2.4-4.4-3.8-6.5-2
		c-1.8,1.5-2,5.1-0.3,6.8C333.6,173.2,339,173.4,339,172.1z M345.5,165.5c1.6,0,2.1,0.8,2.4,4l0.5,4l0.5-4c0.5-3.1,1-4,2.6-4
		s2.1,0.9,2.6,4l0.7,4l-0.2-4.5l-0.1-4.5l-6.2-0.1l-6.3-0.1l0.1,4.6l0.2,4.6l0.6-4C343.4,166.4,343.9,165.5,345.5,165.5z M365,172.1
		c0-0.4-1-0.6-2.3-0.4c-1.4,0.3-2.9-0.2-3.6-1.1c-1.2-1.4-0.9-1.6,2.3-1.6c2.9,0,3.6-0.4,3.6-2c0-2.4-4.4-3.8-6.5-2
		c-1.8,1.5-2,5.1-0.3,6.8C359.6,173.2,365,173.4,365,172.1z M269,162c0-0.5-0.4-1-1-1c-0.5,0-1,0.5-1,1c0,0.6,0.5,1,1,1
		C268.6,163,269,162.6,269,162z M335.4,160.5c-0.4-0.8-1-1.5-1.5-1.5c-0.4,0-0.6,0.7-0.3,1.5c0.4,0.8,1,1.5,1.5,1.5
		C335.5,162,335.7,161.3,335.4,160.5z"/>
	<path display="inline" fill="#FCFCFC" d="M260.3,172.3c-2.7-0.5-3.6-2.8-2.2-5.4c1.7-3.3,4.4-1.9,4.5,2.4c0.1,2,0.1,3.6,0,3.6
		C262.5,172.8,261.5,172.5,260.3,172.3z"/>
	<path display="inline" fill="#FCFCFC" d="M194.2,166.4c0.9-0.9,2.4-1.4,3.2-1.1c2.7,1.1,1.7,2.7-1.6,2.7
		C192.8,168,192.7,167.9,194.2,166.4z"/>
	<path display="inline" fill="#FCFCFC" d="M233.4,170.6c-1-2.6,0-5.1,2.1-5.1c1.6,0,2,0.7,2,3C237.5,171.8,234.5,173.4,233.4,170.6z
		"/>
	<path display="inline" fill="#FCFCFC" d="M247.5,170.1c-0.8-2.6,0.4-5.1,2.5-5.1c1,0,2.1,0.7,2.4,1.6c1,2.5-0.3,5.4-2.4,5.4
		C249,172,247.9,171.2,247.5,170.1z"/>
	<path display="inline" fill="#FCFCFC" d="M272.2,166.8c0.7-2,4.8-2.3,4.8-0.4c0,1.1-0.9,1.6-2.6,1.6
		C272.8,168,272,167.5,272.2,166.8z"/>
	<path display="inline" fill="#FCFCFC" d="M333.2,166.4c0.9-0.9,2.4-1.4,3.2-1.1c2.7,1.1,1.7,2.7-1.6,2.7
		C331.8,168,331.7,167.9,333.2,166.4z"/>
	<path display="inline" fill="#FCFCFC" d="M359.2,166.4c0.9-0.9,2.4-1.4,3.2-1.1c2.7,1.1,1.7,2.7-1.6,2.7
		C357.8,168,357.7,167.9,359.2,166.4z"/>
	<path display="inline" fill="#FCFCFC" d="M400,168v-17h136.5H673v17v17H536.5H400V168z M472.4,173c2.8,0,4.6-1.8,4.6-4.6
		c0-2.5-2.4-4.8-4.2-4.1c-0.9,0.4-0.8,0.6,0.3,0.6c3.8,0.2,2.6,7.1-1.2,7.1c-1.7,0-2-0.6-1.8-3.4c0.2-1.9,0-3.8-0.4-4.2
		c-0.4-0.4-0.6,2.2-0.6,5.7c0.1,3.5,0.3,5.6,0.6,4.7C470,173.7,471.1,173,472.4,173z M481,174.6c0-0.7,1.4-1.6,3.1-2
		c2.8-0.5,3-0.8,2.7-4.3c-0.3-3.6-0.5-3.8-4-4l-3.8-0.1v5.9c0,3.3,0.4,5.9,1,5.9S481,175.4,481,174.6z M576.6,173
		c3.2,0,5.1-3.8,3.5-6.9c-0.9-1.5-2-2.1-4.1-1.9c-3,0.2-3,0.3-2.9,6.3c0.1,3.3,0.3,5.2,0.6,4.3C574,173.7,575.1,173,576.6,173z
		 M586.4,173c2.8,0,4.6-1.8,4.6-4.6c0-2.5-2.4-4.8-4.2-4.1c-0.9,0.4-0.8,0.6,0.3,0.6c3.8,0.2,2.6,7.1-1.2,7.1c-1.7,0-2-0.6-1.8-3.4
		c0.2-1.9,0-3.8-0.4-4.2c-0.4-0.4-0.6,2.2-0.6,5.7c0.1,3.5,0.3,5.6,0.6,4.7C584,173.7,585.1,173,586.4,173z M421,171
		c1.1-1.1,2-2.9,2-4c0-2.9-3.6-6-7-6h-3v6v6h3C417.7,173,419.9,172.1,421,171z M432.3,172.2c0.3-0.4-0.9-0.7-2.5-0.7
		c-1.7,0-3.3-0.6-3.5-1.2c-0.3-0.9,0.7-1.3,3.1-1.3c3.9,0,4.8-1.8,2.1-4c-2-1.6-6.5-0.4-6.6,1.8c-0.2,2.9,0.3,4.7,1.4,5.4
		C427.9,173.2,431.8,173.2,432.3,172.2z M441.1,168.2c1-2.3,1.4-4.2,1-4.2c-0.5,0-1.4,1.5-2.1,3.3c-1.1,3.1-1.2,3.1-2.6,1.3
		c-0.7-1.1-1.4-2.6-1.4-3.3s-0.4-1.3-1-1.3c-0.5,0-0.2,2,0.8,4.5c0.9,2.5,2.1,4.4,2.6,4.2C438.9,172.5,440.2,170.5,441.1,168.2z
		 M449.6,172.1c-4.4-0.9-4.5-3.1-0.2-3.1c2,0,3.6-0.3,3.6-0.6c0-1.8-2.3-4.4-4-4.4c-2.2,0-5,2.5-5,4.5c0,2.3,3,4.5,5.8,4.4l2.7-0.1
		L449.6,172.1z M455.7,163.3c-0.2-2.1-0.4-0.6-0.4,3.2c0,3.9,0.2,5.5,0.4,3.8C455.9,168.5,455.9,165.3,455.7,163.3z M466.1,170.9
		c1.6-3.1-0.3-6.9-3.6-6.9c-1.7,0-2.9,0.8-3.6,2.4c-1.5,3.2,0.4,6.6,3.6,6.6C464,173,465.4,172.1,466.1,170.9z M497,172.1
		c0-0.4-1-0.6-2.3-0.4c-1.4,0.3-2.9-0.2-3.6-1.1c-1.2-1.4-0.9-1.6,2.3-1.6c2.9,0,3.6-0.4,3.6-2c0-2.4-4.4-3.8-6.5-2
		c-1.8,1.5-2,5.1-0.3,6.8C491.6,173.2,497,173.4,497,172.1z M501.2,169.3c0.2-2.7,0.8-3.9,2.1-4.1c1.4-0.3,1.7,0.4,1.7,3.7
		c0,5.1,1.8,5.4,2.2,0.4c0.2-2.7,0.8-3.9,2.1-4.1c1.4-0.3,1.7,0.4,1.7,3.7c0,2.3,0.5,4.1,1,4.1c1.2,0,1.3-5.9,0.2-7.6
		c-0.4-0.6-3.4-1.1-6.9-1.1H499v4.3C499,174,500.8,174.5,501.2,169.3z M522.4,172.1c0.3-0.4-0.5-0.6-1.7-0.4
		c-1.4,0.3-2.9-0.2-3.6-1.1c-1.2-1.4-0.9-1.6,2.4-1.6c2.8,0,3.6-0.4,3.3-1.6c-0.2-0.9-1.1-2.2-2-2.8c-3.7-2.3-7.6,3.5-4.8,7
		C517.4,173.1,521.6,173.5,522.4,172.1z M527.2,169.3c0.2-3,0.7-3.8,2.3-3.8s2.1,0.9,2.6,4l0.7,4l-0.2-4.5c-0.1-4.5-0.1-4.5-3.8-4.7
		l-3.8-0.1v4.4C525,174,526.8,174.5,527.2,169.3z M539.3,172c-1.7-0.7-2.3-1.8-2.3-4c0-2.4,0.4-3,2.3-3.1l2.2-0.2l-2.2-0.4
		c-1.3-0.2-2.3-1.2-2.3-2c0-0.9-0.3-1.3-0.7-1c-0.7,0.8-0.5,9.5,0.3,10.8c0.3,0.5,1.5,0.9,2.7,0.8h2.2L539.3,172z M554.9,166
		c-0.1-3.6-0.4-5.5-0.6-4.4c-0.3,1.4-1.4,2.4-3.2,2.7c-3.1,0.7-4.2,3.1-3,6.5c0.7,1.7,1.5,2.2,3.9,2l3-0.2L554.9,166z M565.7,172.3
		c-2.6-0.7-1.7-3.7,1.2-4.1c2-0.3,2.3,0,1.8,1.7c-0.3,1.2-0.1,2.4,0.5,2.7c0.5,0.4,0.8-1.1,0.6-3.8c-0.3-4.1-0.5-4.3-3.5-4.6
		c-1.8-0.2-3.3,0.1-3.3,0.6s1.1,0.7,2.4,0.5c1.3-0.3,2.7,0,3,0.6c0.5,0.7-0.2,1.1-1.7,1.1c-3.4,0-5.4,2.5-3.7,4.5
		c0.7,0.8,2,1.4,2.9,1.4C567.2,172.8,567.2,172.7,565.7,172.3z M595,166.5c0-3.7-0.4-6.5-1-6.5c-0.6,0-1,2.8-1,6.5s0.4,6.5,1,6.5
		C594.6,173,595,170.2,595,166.5z M598.7,166.3c-0.2-1.6-0.4-0.5-0.4,2.2c0,2.8,0.2,4,0.4,2.8C598.9,170,598.9,167.8,598.7,166.3z
		 M608.5,172.1c0.3-0.6-0.7-0.9-2.2-0.8c-2.5,0.2-2.8-0.1-2.8-2.8c0-2.6,0.4-3,2.7-3c1.4,0.1,2.4-0.3,2.2-0.7
		c-0.7-1.1-3.6-1-5.3,0.1c-0.7,0.5-1.3,2.1-1.3,3.6s0.6,3.1,1.3,3.6C604.9,173.3,607.7,173.2,608.5,172.1z M618,169.5
		c0-1.7-0.5-3.6-1.2-4.3c-1.4-1.4-5.8-1.6-5.8-0.3c0,0.4,1.1,0.6,2.5,0.3c1.5-0.2,2.5,0,2.5,0.7c0,0.6-0.8,1.1-1.9,1.1
		c-2.4,0-4.5,2.5-3.8,4.5c0.4,0.9,1.9,1.4,4.2,1.3C617.7,172.7,618,172.4,618,169.5z M623.8,172.3c-1.3-0.3-1.8-1.5-1.8-3.9
		c0-2.5,0.4-3.4,1.8-3.5c1.6-0.1,1.6-0.2,0-0.6c-1-0.2-1.8-1.2-1.8-2c0-0.9-0.3-1.3-0.7-1c-0.7,0.8-0.5,9.5,0.3,10.8
		c0.3,0.5,1.3,0.8,2.2,0.8C625.3,172.8,625.3,172.7,623.8,172.3z M629,168.5c0-2.5-0.4-4.5-1-4.5c-0.5,0-1,2-1,4.5s0.5,4.5,1,4.5
		C628.6,173,629,171,629,168.5z M638,171.6c2.8-3.5-1.1-9.3-4.7-7c-3.6,2.2-2.3,8.4,1.7,8.4C636,173,637.3,172.3,638,171.6z
		 M645.5,165.5c1.6,0,2.1,0.9,2.6,4l0.7,4l-0.2-4.5c-0.1-4.4-0.2-4.5-3.3-4.6c-3.3-0.1-3.3-0.1-3.2,4.5l0.2,4.6l0.6-4
		C643.4,166.4,643.9,165.5,645.5,165.5z M657.8,171.7c1.3-1.6,0.3-3.4-2.2-3.8c-1.1-0.2-2.1-1-2.4-1.8c-0.3-1,0.2-1.3,2.2-0.9
		c1.8,0.4,2.4,0.2,1.8-0.4c-1.5-1.5-4.6-0.5-5,1.5c-0.2,1.1,0.6,2,2.2,2.7c3.4,1.2,3.4,3.4,0.1,2.8c-1.4-0.3-2.5-0.1-2.5,0.3
		C652,173.5,656.6,173.1,657.8,171.7z M561,160.8c0-2-1.8-0.5-2.3,1.9c-0.5,2.6-0.4,2.6,0.9,0.8C560.4,162.5,561,161.3,561,160.8z
		 M600,162c0-0.5-0.4-1-1-1c-0.5,0-1,0.5-1,1c0,0.6,0.5,1,1,1C599.6,163,600,162.6,600,162z M629,162c0-0.5-0.4-1-1-1
		c-0.5,0-1,0.5-1,1c0,0.6,0.5,1,1,1C628.6,163,629,162.6,629,162z M431,160.5c0.7-0.8,0.8-1.5,0.2-1.5c-0.5,0-1.5,0.7-2.2,1.5
		c-0.7,0.8-0.8,1.5-0.2,1.5C429.3,162,430.3,161.3,431,160.5z"/>
	<path display="inline" fill="#FCFCFC" d="M481.2,168.8c0.2-2.5,0.8-3.3,2.3-3.3c1.6,0,2,0.7,2,3c0,2.4-0.5,3.1-2.3,3.3
		C481.1,172.1,480.9,171.8,481.2,168.8z"/>
	<path display="inline" fill="#FCFCFC" d="M574.2,168.8c0.2-2.5,0.8-3.3,2.3-3.3c1.6,0,2,0.7,2,3c0,2.4-0.5,3.1-2.3,3.3
		C574.1,172.1,573.9,171.8,574.2,168.8z"/>
	<path display="inline" fill="#FCFCFC" d="M414,167c0-4.6,0.2-5,2.3-5c3,0,4.7,1.8,4.7,5s-1.7,5-4.7,5C414.2,172,414,171.6,414,167z
		"/>
	<path display="inline" fill="#FCFCFC" d="M426.2,166.8c0.7-2,4.8-2.3,4.8-0.4c0,1.1-0.9,1.6-2.6,1.6
		C426.8,168,426,167.5,426.2,166.8z"/>
	<path display="inline" fill="#FCFCFC" d="M446.3,166.8c0.2-0.7,1.2-1.3,2.2-1.3s2,0.6,2.3,1.3c0.2,0.7-0.6,1.2-2.3,1.2
		C446.8,168,446,167.5,446.3,166.8z"/>
	<path display="inline" fill="#FCFCFC" d="M460.4,170.6c-1-2.6,0-5.1,2.1-5.1c1.6,0,2,0.7,2,3C464.5,171.8,461.5,173.4,460.4,170.6z
		"/>
	<path display="inline" fill="#FCFCFC" d="M491.2,166.4c0.9-0.9,2.4-1.4,3.2-1.1c2.7,1.1,1.7,2.7-1.6,2.7
		C489.8,168,489.7,167.9,491.2,166.4z"/>
	<path display="inline" fill="#FCFCFC" d="M516.6,166.5c0.4-0.8,1.4-1.5,2.4-1.5s2,0.7,2.4,1.5c0.4,1.1-0.2,1.5-2.4,1.5
		S516.2,167.6,516.6,166.5z"/>
	<path display="inline" fill="#FCFCFC" d="M549.4,170.6c-1-2.7,0.1-5.1,2.4-5.4c2.1-0.3,2.3,0,2,3
		C553.5,171.7,550.5,173.4,549.4,170.6z"/>
	<path display="inline" fill="#FCFCFC" d="M611.7,171.4c-0.9-1,1.2-3.4,3-3.4c1.9,0,1.2,3.4-0.8,3.8
		C613.1,171.9,612.1,171.8,611.7,171.4z"/>
	<path display="inline" fill="#FCFCFC" d="M633.1,170.6c-1.9-2.3-0.4-5.8,2.2-5.4c1.7,0.2,2.2,1,2.2,3.3
		C637.5,171.9,635.1,173,633.1,170.6z"/>
</g>
<g id="layer2">
	<path fill="#01B051" d="M278.7,135.5c-2.8-5.8-5.2-10.7-5.2-11c0-0.3,1.6-0.5,3.5-0.5h3.5v-19.5V85H226h-54.5V52.5V20H423h251.5
		v32.5V85l-68.2,0.2L538,85.5l-0.3,19.3l-0.2,19.2h3.5c1.9,0,3.5,0.3,3.4,0.8c0,0.4-2.4,5.4-5.3,11.2l-5.4,10.5l-5.6-11.3l-5.6-11.2
		h4h4l-0.2-19.2L530,85.5H409H288l-0.3,19.3l-0.2,19.2h4h4l-5.5,11c-3,6.1-5.6,11-5.8,11C284.1,146,281.6,141.3,278.7,135.5z"/>
</g>
<g id="layer3">
	<path fill="#394E42" d="M169,168v-18h111h111v18v18H280H169V168z M390,168v-17H280H170v17v17h110h110V168z"/>
	<path fill="#394E42" d="M399,168v-18h137.5H674v18v18H536.5H399V168z M673,168v-17H536.5H400v17v17h136.5H673V168z"/>
</g>
</svg>
