<?xml version="1.0" encoding="utf-8"?>
<!-- Generator: Adobe Illustrator 18.1.1, SVG Export Plug-In . SVG Version: 6.00 Build 0)  -->
<svg version="1.1" id="Calque_1" xmlns="http://www.w3.org/2000/svg" xmlns:xlink="http://www.w3.org/1999/xlink" x="0px" y="0px"
	 viewBox="0 -10 200 14" enable-background="new 0 -10 200 14" xml:space="preserve">
<g id="layer4">
	<path fill="#00B050" d="M0,4c-0.1-0.1,6.3-6.9,6.3-7c0-0.1-1.4-1.6-3.1-3.3C1.5-8.1-0.1-9.8,0-9.9c0.1-0.1,10.7,0,23.4,0h22.9
		l3.4,3.5L53.1-3l-3.5,3.5L46.1,4H23.1C10.5,4,0.1,4.1,0,4z"/>
</g>
<path fill="#99FF99" d="M49,4c-0.1-0.1,6.3-6.9,6.3-7c0-0.1-1.4-1.6-3.1-3.3c-1.7-1.7-3.3-3.4-3.2-3.6c0.1-0.1,10.7,0,23.4,0h22.9
	l3.4,3.5L102-3l-3.5,3.5L95.1,4H72.1C59.5,4,49.1,4.1,49,4z"/>
<path fill="#00B050" d="M98,4c-0.1-0.1,6.3-6.9,6.3-7c0-0.1-1.4-1.6-3.1-3.3c-1.7-1.7-3.3-3.4-3.2-3.6c0.1-0.1,10.7,0,23.4,0h22.9
	l3.4,3.5L151-3l-3.5,3.5L144.1,4h-22.9C108.5,4,98.1,4.1,98,4z"/>
<path fill="#99FF99" d="M146.9,4c-0.1-0.1,6.3-6.9,6.3-7c0-0.1-1.4-1.6-3.1-3.3c-1.7-1.7-3.3-3.4-3.2-3.6c0.1-0.1,10.7,0,23.4,0
	h22.9l3.4,3.5L200-3l-3.5,3.5L193,4h-22.9C157.5,4,147,4.1,146.9,4z"/>
<g id="layer6" display="none">
	<path display="inline" fill="#FEFFFE" d="M269.9,174.3v-6.7h100.4l99.1,0.4l-0.4,5.8l0.4,7.1h-99.1H269.9V174.3z M297.5,177.5
		c9.7,0,22.3,0,22.3,0l3.2-1.7l3.2-1.7l-3.1-1.6c-1.2-0.6-2.3-1.3-3.5-1.9c-7.3,0-14.5,0-21.7,0c-7.4,0-14.8,0-22.3,0
		c1,0.6,2,1.3,3,1.9l3,1.6l-2.8,1.6c-1.1,0.6-3,1.8-3.1,1.8 M370.6,175.5l3.1-1.7l-3.1-1.6l-3.1-1.7h-22.1h-22.1l3.1,1.6l3.1,1.7
		l-3.1,1.6l-3.1,1.7h22.1h22.1L370.6,175.5z M418.2,175.4l3.2-1.7l-3.1-1.6l-3-1.6h-22c-12.4,0-22,0.1-22,0.1c0,0.1,1.4,0.8,3,1.6
		l3,1.5l-3,1.7l-3.1,1.6h22h22L418.2,175.4z M465.9,175.6c1.7-0.9,3.1-1.6,3.1-1.7c0-0.1-1.4-0.9-3.1-1.8l-3.1-1.6l-22.1,0.1
		l-22.1,0.1l3,1.6l3,1.6l-3.1,1.6l-3.1,1.7h22.1h22.1L465.9,175.6z"/>
</g>
</svg>
